<svg xmlns="http://www.w3.org/2000/svg" viewBox="0 0 900 460" font-family="Segoe UI, Arial, sans-serif" role="img" aria-label="How it works: messy paper forms become neat data, processed locally by an AI">
  <style>
    .title{font-size:30px;font-weight:700;fill:#1e293b}
    .sub{font-size:14px;fill:#64748b}
    .ct{font-size:18px;font-weight:700;fill:#1e293b}
    .cs{font-size:12px}
    .badge{font-size:12px;fill:#fff;font-weight:700}
    .foot{font-size:14px;fill:#16a34a;font-weight:600}
    /* the spotlight slides across the five cards, dwelling on each */
    #spot{animation:sweep 11s ease-in-out infinite}
    @keyframes sweep{
      0%,16%{transform:translateX(0)}      20%,36%{transform:translateX(174px)}
      40%,56%{transform:translateX(348px)} 60%,76%{transform:translateX(522px)}
      80%,96%{transform:translateX(696px)} 100%{transform:translateX(0)}
    }
    #packet{animation:sweep 11s ease-in-out infinite}
    .scan{animation:scan 1.6s linear infinite}
    @keyframes scan{0%{transform:translateY(0)}100%{transform:translateY(40px)}}
    .pulse{animation:pulse 1.6s ease-in-out infinite}
    @keyframes pulse{0%,100%{opacity:.55}50%{opacity:1}}
  </style>

  <rect width="900" height="460" fill="#f7f9fc"/>
  <text x="450" y="38" text-anchor="middle" class="title">How it works:  paper form  →  neat data</text>
  <text x="450" y="64" text-anchor="middle" class="sub">messy handwritten forms turned into clean, organized data by an AI</text>

  <!-- arrows -->
  <g stroke="#cbd5e1" stroke-width="3" fill="#cbd5e1">
    <line x1="184" y1="235" x2="196" y2="235"/><polygon points="196,230 196,240 204,235"/>
    <line x1="358" y1="235" x2="370" y2="235"/><polygon points="370,230 370,240 378,235"/>
    <line x1="532" y1="235" x2="544" y2="235"/><polygon points="544,230 544,240 552,235"/>
    <line x1="706" y1="235" x2="718" y2="235"/><polygon points="718,230 718,240 726,235"/>
  </g>

  <!-- moving spotlight behind the active card -->
  <g id="spot"><rect x="26" y="146" width="158" height="178" rx="18" fill="none" stroke="#4f46e5" stroke-width="4" class="pulse"/></g>

  <!-- ===== cards ===== -->
  <!-- 1 messy form -->
  <g transform="translate(30,150)">
    <rect width="150" height="170" rx="14" fill="#fff" stroke="#d97706" stroke-width="2"/>
    <rect x="45" y="32" width="60" height="76" rx="6" fill="#fff" stroke="#cbd5e1" stroke-width="2"/>
    <g stroke="#9aa5b8" stroke-width="2"><line x1="55" y1="48" x2="95" y2="46"/><line x1="55" y1="60" x2="95" y2="62"/><line x1="55" y1="72" x2="95" y2="70"/><line x1="55" y1="84" x2="95" y2="86"/></g>
    <text x="75" y="128" text-anchor="middle" class="ct">Messy form</text>
    <text x="75" y="148" text-anchor="middle" class="cs" fill="#d97706">handwritten scan</text>
  </g>
  <!-- 2 clean it up -->
  <g transform="translate(204,150)">
    <rect width="150" height="170" rx="14" fill="#fff" stroke="#2563eb" stroke-width="2"/>
    <rect x="45" y="32" width="60" height="76" rx="6" fill="#fff" stroke="#cbd5e1" stroke-width="2"/>
    <g stroke="#9aa5b8" stroke-width="2"><line x1="55" y1="48" x2="95" y2="48"/><line x1="55" y1="60" x2="95" y2="60"/><line x1="55" y1="72" x2="95" y2="72"/><line x1="55" y1="84" x2="95" y2="84"/></g>
    <g stroke="#d97706" stroke-width="2"><line x1="104" y1="26" x2="114" y2="26"/><line x1="109" y1="21" x2="109" y2="31"/></g>
    <text x="75" y="128" text-anchor="middle" class="ct">Clean it up</text>
    <text x="75" y="148" text-anchor="middle" class="cs" fill="#2563eb">straighten + sharpen</text>
  </g>
  <!-- 3 AI reads it -->
  <g transform="translate(378,150)">
    <rect width="150" height="170" rx="14" fill="#fff" stroke="#4f46e5" stroke-width="2"/>
    <line x1="75" y1="22" x2="75" y2="32" stroke="#4f46e5" stroke-width="2"/><circle cx="75" cy="20" r="3" fill="#4f46e5"/>
    <rect x="43" y="32" width="64" height="56" rx="10" fill="#ede9fe" stroke="#4f46e5" stroke-width="2"/>
    <g><circle cx="61" cy="58" r="7" fill="#fff" stroke="#4f46e5" stroke-width="2"/><circle cx="61" cy="58" r="3" fill="#4f46e5"/>
       <circle cx="89" cy="58" r="7" fill="#fff" stroke="#4f46e5" stroke-width="2"/><circle cx="89" cy="58" r="3" fill="#4f46e5"/></g>
    <clipPath id="botclip"><rect x="43" y="32" width="64" height="56" rx="10"/></clipPath>
    <line class="scan" x1="45" y1="36" x2="105" y2="36" stroke="#16a34a" stroke-width="3" clip-path="url(#botclip)"/>
    <text x="75" y="128" text-anchor="middle" class="ct">AI reads it</text>
    <text x="75" y="148" text-anchor="middle" class="cs" fill="#4f46e5">Qwen2.5-VL</text>
  </g>
  <!-- 4 checkboxes -->
  <g transform="translate(552,150)">
    <rect width="150" height="170" rx="14" fill="#fff" stroke="#2563eb" stroke-width="2"/>
    <g><rect x="49" y="36" width="18" height="18" rx="3" fill="#fff" stroke="#cbd5e1" stroke-width="2"/>
       <rect x="49" y="60" width="18" height="18" rx="3" fill="#fff" stroke="#cbd5e1" stroke-width="2"/>
       <polyline points="52,69 56,74 64,63" fill="none" stroke="#16a34a" stroke-width="3"/>
       <rect x="49" y="84" width="18" height="18" rx="3" fill="#fff" stroke="#cbd5e1" stroke-width="2"/></g>
    <g stroke="#9aa5b8" stroke-width="2"><line x1="75" y1="45" x2="101" y2="45"/><line x1="75" y1="69" x2="101" y2="69"/><line x1="75" y1="93" x2="101" y2="93"/></g>
    <text x="75" y="128" text-anchor="middle" class="ct" font-size="16">Find ticked boxes</text>
    <text x="75" y="148" text-anchor="middle" class="cs" fill="#2563eb">tight crop + check</text>
  </g>
  <!-- 5 neat data -->
  <g transform="translate(726,150)">
    <rect width="150" height="170" rx="14" fill="#fff" stroke="#16a34a" stroke-width="2"/>
    <rect x="41" y="34" width="68" height="68" rx="6" fill="#fff" stroke="#cbd5e1" stroke-width="2"/>
    <rect x="41" y="34" width="68" height="16" fill="#dcfce7"/>
    <line x1="75" y1="34" x2="75" y2="102" stroke="#cbd5e1"/>
    <g stroke="#16a34a" stroke-width="3"><line x1="47" y1="62" x2="69" y2="62"/><line x1="47" y1="75" x2="69" y2="75"/><line x1="47" y1="88" x2="69" y2="88"/></g>
    <g stroke="#5a6e8c" stroke-width="3"><line x1="81" y1="62" x2="103" y2="62"/><line x1="81" y1="75" x2="103" y2="75"/><line x1="81" y1="88" x2="103" y2="88"/></g>
    <text x="75" y="128" text-anchor="middle" class="ct">Neat data</text>
    <text x="75" y="148" text-anchor="middle" class="cs" fill="#16a34a">structured fields</text>
  </g>

  <!-- step badges -->
  <g class="badge" text-anchor="middle">
    <circle cx="105" cy="140" r="11" fill="#d97706"/><text x="105" y="144">1</text>
    <circle cx="279" cy="140" r="11" fill="#2563eb"/><text x="279" y="144">2</text>
    <circle cx="453" cy="140" r="11" fill="#4f46e5"/><text x="453" y="144">3</text>
    <circle cx="627" cy="140" r="11" fill="#2563eb"/><text x="627" y="144">4</text>
    <circle cx="801" cy="140" r="11" fill="#16a34a"/><text x="801" y="144">5</text>
  </g>

  <!-- travelling packet dot -->
  <g id="packet"><circle cx="105" cy="338" r="7" fill="#16a34a"/></g>

  <!-- privacy footer -->
  <g>
    <rect x="200" y="404" width="500" height="34" rx="17" fill="#dcfce7"/>
    <path d="M226 414 a8 8 0 0 1 16 0" fill="none" stroke="#16a34a" stroke-width="3"/>
    <rect x="223" y="416" width="22" height="18" rx="3" fill="#16a34a"/><circle cx="234" cy="424" r="2.4" fill="#fff"/>
    <text x="470" y="426" text-anchor="middle" class="foot">100% local  •  your data never leaves your computer</text>
  </g>
</svg>
